<?xml version="1.0" encoding="utf-8"?>
<!-- Generator: Adobe Illustrator 16.0.3, SVG Export Plug-In . SVG Version: 6.00 Build 0)  -->
<!DOCTYPE svg PUBLIC "-//W3C//DTD SVG 1.1//EN" "http://www.w3.org/Graphics/SVG/1.1/DTD/svg11.dtd">
<svg version="1.1" id="Layer_1" xmlns="http://www.w3.org/2000/svg" xmlns:xlink="http://www.w3.org/1999/xlink" x="0px" y="0px"
	 width="131.247px" height="125.913px" viewBox="0 0 131.247 125.913" enable-background="new 0 0 131.247 125.913"
	 xml:space="preserve">
<g>
	<g>
		<defs>
			<circle id="SVGID_1_" cx="67.29" cy="62.957" r="62.957"/>
		</defs>
		<use xlink:href="#SVGID_1_"  overflow="visible" fill="#FFFFFF"/>
		<clipPath id="SVGID_2_">
			<use xlink:href="#SVGID_1_"  overflow="visible"/>
		</clipPath>
		<g clip-path="url(#SVGID_2_)">
			<polygon fill="#605545" points="67.29,126.885 67.29,88.902 79.951,88.902 106.053,99.81 112.676,126.885 			"/>
			<polygon fill="#423832" points="67.29,126.885 67.29,88.902 54.629,88.902 28.527,99.81 21.904,126.885 			"/>
			<polygon fill="#423832" points="106.053,99.81 97.858,126.885 112.676,126.885 			"/>
			<rect x="67.29" y="88.902" fill="#FBF4E5" width="12.661" height="37.983"/>
			<polygon fill="#605545" points="28.527,99.81 36.722,126.885 21.904,126.885 			"/>
			<rect x="54.629" y="88.902" fill="#ECDBC9" width="12.661" height="37.983"/>
			<path fill="#FDBD4F" d="M58.67,69.651l-4.042,19.25c0,6.993,5.668,12.661,12.661,12.661V88.902v-19.25H58.67z"/>
			<path fill="#FEC967" d="M75.91,69.651h-8.62v19.25v12.661c6.992,0,12.661-5.668,12.661-12.661L75.91,69.651z"/>
			<path fill="#FACF83" d="M41.361,54.675c0,16.91,11.609,32.384,25.929,32.384V25.824C52.971,25.824,41.361,37.766,41.361,54.675z"
				/>
			<path fill="#FEDE9D" d="M67.29,25.824V87.06c14.319,0,25.928-15.474,25.928-32.384C93.218,37.766,81.609,25.824,67.29,25.824z"/>
			<path fill="#1C100C" d="M95.629,46.932c-0.204-7.599-3.465-14.848-9.249-19.782c-5.245-4.476-11.877-7.031-19.09-7.031
				c-7.214,0-13.846,2.555-19.091,7.031c-5.783,4.935-9.044,12.183-9.248,19.782c-0.274,10.242,3.34,16.024,3.34,16.024
				l1.666-20.035c0.365-2.954,2.875-5.173,5.852-5.173H67.29h17.48c2.977,0,5.487,2.219,5.852,5.173l1.666,20.035
				C92.288,62.957,95.902,57.174,95.629,46.932z"/>
			<circle fill="#4F2208" cx="78.064" cy="58.808" r="1.761"/>
			<g>
				<path fill="#4F2208" d="M74.163,55.247c2.934-2.083,6.324-2.219,9.381-0.287c1.387,0.876,2.658-1.319,1.28-2.19
					c-3.757-2.374-8.307-2.293-11.942,0.288C71.562,53.995,72.826,56.196,74.163,55.247L74.163,55.247z"/>
			</g>
			<circle fill="#4F2208" cx="56.515" cy="58.808" r="1.761"/>
			<g>
				<path fill="#4F2208" d="M60.417,55.247c-2.934-2.083-6.324-2.219-9.381-0.287c-1.387,0.876-2.658-1.319-1.28-2.19
					c3.757-2.374,8.307-2.293,11.941,0.288C63.018,53.995,61.753,56.196,60.417,55.247L60.417,55.247z"/>
			</g>
			<path fill="#371C13" d="M49.809,37.749c0,0,10.715,8.875,36.356,8.594c0,0-1.515-4.367-5.107-6.481c0,0,5.119,0.848,8.001-0.263
				c0,0-1.661-4.809-5.993-6.711c0,0,3.29-0.634,5.993,0C89.059,32.888,65.263,18.835,49.809,37.749z"/>
		</g>
	</g>
</g>
<g>
</g>
<g>
</g>
<g>
</g>
<g>
</g>
<g>
</g>
<g>
</g>
</svg>
