<?xml version="1.0" encoding="utf-8"?>
<!-- Generator: Adobe Illustrator 16.0.3, SVG Export Plug-In . SVG Version: 6.00 Build 0)  -->
<!DOCTYPE svg PUBLIC "-//W3C//DTD SVG 1.1//EN" "http://www.w3.org/Graphics/SVG/1.1/DTD/svg11.dtd">
<svg version="1.1" id="Layer_1" xmlns="http://www.w3.org/2000/svg" xmlns:xlink="http://www.w3.org/1999/xlink" x="0px" y="0px"
	 width="492px" height="492px" viewBox="0 0 492 492" enable-background="new 0 0 492 492" xml:space="preserve">
<g>
	<g opacity="0.5">
		<g opacity="0.7">
			<path d="M224.5,471.122c-59.916,0-116.245-23.331-158.611-65.699c-42.367-42.365-65.698-98.695-65.698-158.61
				S23.522,130.568,65.889,88.201c42.367-42.366,98.696-65.698,158.611-65.698c59.915,0,116.243,23.333,158.61,65.698
				c42.367,42.367,65.7,98.696,65.7,158.611s-23.333,116.245-65.7,158.61C340.743,447.791,284.415,471.122,224.5,471.122z
				 M224.5,79.748c-92.12,0-167.065,74.945-167.065,167.064c0,92.12,74.945,167.064,167.065,167.064
				c92.121,0,167.065-74.944,167.065-167.064C391.565,154.693,316.621,79.748,224.5,79.748z"/>
		</g>
	</g>
	<g>
		<path fill="#3B9044" d="M224.5,471.122c-59.916,0-116.245-23.331-158.611-65.699c-42.367-42.365-65.698-98.695-65.698-158.61
			S23.522,130.568,65.889,88.201c42.367-42.366,98.696-65.698,158.611-65.698c59.915,0,116.243,23.333,158.61,65.698
			c42.367,42.367,65.7,98.696,65.7,158.611s-23.333,116.245-65.7,158.61C340.743,447.791,284.415,471.122,224.5,471.122z
			 M224.5,79.748c-92.12,0-167.065,74.945-167.065,167.064c0,92.12,74.945,167.064,167.065,167.064
			c92.121,0,167.065-74.944,167.065-167.064C391.565,154.693,316.621,79.748,224.5,79.748z"/>
	</g>
	<g>
		<polygon fill="#7BDE45" points="493.889,107.471 443.361,56.945 228.544,269.476 143.645,185.842 93.118,236.364 227.952,369.933 
			230.643,367.24 231.237,367.836 		"/>
	</g>
</g>
</svg>
