<?xml version="1.0" encoding="utf-8"?>
<!-- Generator: Adobe Illustrator 16.0.3, SVG Export Plug-In . SVG Version: 6.00 Build 0)  -->
<!DOCTYPE svg PUBLIC "-//W3C//DTD SVG 1.1//EN" "http://www.w3.org/Graphics/SVG/1.1/DTD/svg11.dtd">
<svg version="1.1" id="Layer_1" xmlns="http://www.w3.org/2000/svg" xmlns:xlink="http://www.w3.org/1999/xlink" x="0px" y="0px"
	 width="492px" height="492px" viewBox="0 0 492 492" enable-background="new 0 0 492 492" xml:space="preserve">
<path fill-rule="evenodd" clip-rule="evenodd" fill="#343A40" d="M417.81,481.109c8.896-1.734,16.747-3.957,23.631-6.912
	c7.035-2.482,13.567-6.393,19.376-12.818c7.356-7.42,12.662-17.169,16.179-30.113c18.235-67.113,20.375-289.197,3.647-356.003
	c-1.732-8.901-3.951-16.758-6.903-23.647c-2.475-7.036-6.382-13.567-12.791-19.378c-7.426-7.381-17.189-12.703-30.162-16.228
	C363.639-2.228,141.575-4.376,74.757,12.368c-8.882,1.73-16.723,3.946-23.601,6.891c-7.052,2.476-13.601,6.392-19.422,12.822
	C24.365,39.504,19.052,49.26,15.53,62.219c-18.236,67.166-20.388,289.174-3.646,356.013c1.737,8.926,3.965,16.803,6.931,23.705
	c2.479,7.021,6.382,13.54,12.789,19.337c7.423,7.367,17.177,12.681,30.135,16.202C128.827,495.711,351.049,497.854,417.81,481.109z"
	/>
<path fill-rule="evenodd" clip-rule="evenodd" fill="#FFFFFE" d="M211.56,133.372h69.401V102.74H211.56V133.372L211.56,133.372z
	 M220.749,111.93h51.022v12.253h-51.022V111.93z"/>
<polygon fill="#BF1616" points="339.262,144.484 339.262,361.474 339.262,384.268 339.262,390.74 332.79,390.74 159.73,390.74 
	153.258,390.74 153.258,384.268 153.258,361.474 153.258,144.484 "/>
<rect x="153.258" y="144.484" fill="#FFFFFE" width="186.003" height="15.05"/>
<path fill="#BF1616" d="M153.258,153.297h-19.756h-0.291v-30.1h209.031h17.067v30.1c-6.534,0-10.534,0-17.067,0h-2.98H153.258z"/>
<path fill-rule="evenodd" clip-rule="evenodd" fill="#ECEFF1" d="M294.851,334.843V198.745c0-2.308-1.872-4.18-4.18-4.18
	c-2.309,0-4.18,1.872-4.18,4.18v136.098c0,2.309,1.871,4.18,4.18,4.18C292.979,339.022,294.851,337.151,294.851,334.843z"/>
<path fill-rule="evenodd" clip-rule="evenodd" fill="#ECEFF1" d="M250.439,334.843V198.745c0-2.308-1.871-4.18-4.18-4.18
	s-4.18,1.872-4.18,4.18v136.098c0,2.309,1.871,4.18,4.18,4.18S250.439,337.151,250.439,334.843z"/>
<path fill-rule="evenodd" clip-rule="evenodd" fill="#ECEFF1" d="M206.029,334.843V198.745c0-2.308-1.872-4.18-4.18-4.18
	c-2.309,0-4.18,1.872-4.18,4.18v136.098c0,2.309,1.872,4.18,4.18,4.18C204.157,339.022,206.029,337.151,206.029,334.843z"/>
</svg>
