<?xml version="1.0" encoding="utf-8"?>
<!-- Generator: Adobe Illustrator 16.0.3, SVG Export Plug-In . SVG Version: 6.00 Build 0)  -->
<!DOCTYPE svg PUBLIC "-//W3C//DTD SVG 1.1//EN" "http://www.w3.org/Graphics/SVG/1.1/DTD/svg11.dtd">
<svg version="1.1" id="Capa_1" xmlns="http://www.w3.org/2000/svg" xmlns:xlink="http://www.w3.org/1999/xlink" x="0px" y="0px"
	 width="50px" height="50px" viewBox="0 0 50 50" enable-background="new 0 0 50 50" xml:space="preserve">
<g>
	<path fill="none" d="M20.476,6.004c-7.588,0-13.741,6.151-13.741,13.741c0,7.59,6.153,13.74,13.741,13.74
		c7.589,0,13.741-6.15,13.741-13.74C34.217,12.155,28.064,6.004,20.476,6.004z M13.966,24.823c-0.203,0-0.407-0.067-0.578-0.201
		c-0.401-0.321-0.467-0.905-0.149-1.306l9.599-12.073c0.318-0.402,0.902-0.466,1.304-0.149c0.402,0.32,0.47,0.903,0.15,1.304
		l-9.597,12.074C14.511,24.704,14.238,24.823,13.966,24.823z M28.316,16.423l-9.599,12.074c-0.183,0.23-0.454,0.351-0.727,0.351
		c-0.202,0-0.406-0.065-0.577-0.2c-0.402-0.32-0.47-0.904-0.15-1.307l9.6-12.074c0.316-0.401,0.902-0.467,1.303-0.149
		C28.568,15.438,28.637,16.021,28.316,16.423z"/>
	<path fill="#616E7D" d="M48.318,43.104l-0.207-0.208l-5.018,5.015l0.123,0.122l1.332,1.326c0.85,0.855,2.664,0.424,4.051-0.96
		c1.385-1.387,1.814-3.201,0.963-4.053l-1.242-1.242H48.318z"/>
	<polygon fill="#AAD4C8" points="46.883,41.689 41.867,46.701 43.094,47.911 48.111,42.896 47.967,42.753 47.963,42.755 	"/>
	<path fill="#3A3F44" d="M20.208,0.201c-10.792,0-19.541,8.75-19.541,19.544c0,10.792,8.749,19.541,19.541,19.541
		c4.002,0,7.716-1.204,10.815-3.267l10.844,10.682l5.016-5.012l-10.773-10.61c2.285-3.198,3.643-7.104,3.643-11.334
		C39.752,8.952,31.004,0.201,20.208,0.201z M20.476,33.485c-7.588,0-13.741-6.15-13.741-13.74c0-7.59,6.153-13.741,13.741-13.741
		c7.589,0,13.741,6.151,13.741,13.741C34.217,27.335,28.064,33.485,20.476,33.485z"/>
	<path fill="#81BEAA" d="M22.837,11.243l-9.599,12.073c-0.317,0.401-0.251,0.985,0.149,1.306c0.171,0.134,0.375,0.201,0.578,0.201
		c0.272,0,0.545-0.119,0.728-0.351l9.597-12.074c0.32-0.401,0.251-0.984-0.15-1.304C23.74,10.777,23.155,10.84,22.837,11.243z"/>
	<path fill="#81BEAA" d="M26.863,15.267l-9.6,12.074c-0.32,0.402-0.251,0.986,0.15,1.307c0.171,0.135,0.375,0.2,0.577,0.2
		c0.272,0,0.543-0.12,0.727-0.351l9.599-12.074c0.32-0.401,0.252-0.984-0.15-1.305C27.766,14.8,27.18,14.866,26.863,15.267z"/>
</g>
</svg>
