<?xml version="1.0" encoding="utf-8"?>
<!-- Generator: Adobe Illustrator 16.0.3, SVG Export Plug-In . SVG Version: 6.00 Build 0)  -->
<!DOCTYPE svg PUBLIC "-//W3C//DTD SVG 1.1//EN" "http://www.w3.org/Graphics/SVG/1.1/DTD/svg11.dtd">
<svg version="1.1" id="Layer_1" xmlns="http://www.w3.org/2000/svg" xmlns:xlink="http://www.w3.org/1999/xlink" x="0px" y="0px"
	 width="492px" height="492px" viewBox="0 0 492 492" enable-background="new 0 0 492 492" xml:space="preserve">
<path fill-rule="evenodd" clip-rule="evenodd" fill="#63B2D3" d="M417.81,481.109c8.896-1.734,16.747-3.957,23.631-6.912
	c7.035-2.482,13.567-6.393,19.376-12.818c7.356-7.42,12.662-17.169,16.179-30.113c18.235-67.113,20.375-289.197,3.647-356.003
	c-1.732-8.901-3.951-16.758-6.903-23.647c-2.475-7.036-6.382-13.567-12.791-19.378c-7.426-7.381-17.189-12.703-30.162-16.228
	C363.639-2.228,141.575-4.376,74.757,12.368c-8.882,1.73-16.723,3.946-23.601,6.891c-7.052,2.476-13.601,6.392-19.422,12.822
	C24.365,39.504,19.052,49.26,15.53,62.219c-18.236,67.166-20.388,289.174-3.646,356.013c1.737,8.926,3.965,16.803,6.931,23.705
	c2.479,7.021,6.382,13.54,12.789,19.337c7.423,7.367,17.177,12.681,30.135,16.202C128.827,495.711,351.049,497.854,417.81,481.109z"
	/>
<polygon fill-rule="evenodd" clip-rule="evenodd" fill="#D1A994" points="102.26,390.83 171.657,376.26 116.831,321.434 "/>
<polygon fill-rule="evenodd" clip-rule="evenodd" points="102.26,390.83 118.275,387.468 105.623,374.815 "/>
<rect x="109.114" y="225.001" transform="matrix(-0.7071 0.7071 -0.7071 -0.7071 577.7251 288.7649)" fill-rule="evenodd" clip-rule="evenodd" fill="#B2EBF2" width="239.887" height="78.066"/>
<rect x="109.113" y="250.87" transform="matrix(-0.7071 0.7071 -0.7071 -0.7071 577.7246 288.765)" fill-rule="evenodd" clip-rule="evenodd" fill="#26C6DA" width="239.887" height="26.328"/>
<rect x="127.406" y="269.162" transform="matrix(-0.7071 0.7071 -0.7071 -0.7071 621.886 307.0572)" fill-rule="evenodd" clip-rule="evenodd" fill="#00ACC1" width="239.887" height="26.328"/>
<rect x="90.822" y="232.577" transform="matrix(-0.7071 0.7071 -0.7071 -0.7071 533.5635 270.4732)" fill-rule="evenodd" clip-rule="evenodd" fill="#00ACC1" width="239.887" height="26.328"/>
<rect x="284.852" y="154.425" transform="matrix(-0.7071 -0.7071 0.7071 -0.7071 433.6976 517.4363)" fill-rule="evenodd" clip-rule="evenodd" fill="#525252" width="78.321" height="28.943"/>
<path fill-rule="evenodd" clip-rule="evenodd" fill="#FFFFFE" d="M306.556,130.973l55.382,55.382l21.066-21.067
	c9.675-9.674,9.675-25.505,0-35.18l-20.201-20.202c-9.675-9.674-25.506-9.674-35.181,0L306.556,130.973z"/>
</svg>
