<?xml version="1.0" encoding="utf-8"?>
<!-- Generator: Adobe Illustrator 16.0.3, SVG Export Plug-In . SVG Version: 6.00 Build 0)  -->
<!DOCTYPE svg PUBLIC "-//W3C//DTD SVG 1.1//EN" "http://www.w3.org/Graphics/SVG/1.1/DTD/svg11.dtd">
<svg version="1.1" id="Capa_1" xmlns="http://www.w3.org/2000/svg" xmlns:xlink="http://www.w3.org/1999/xlink" x="0px" y="0px"
	 width="1040px" height="321px" viewBox="0 0 1040 321" enable-background="new 0 0 1040 321" xml:space="preserve">
<g>
	<g>
		<path fill="#CE830B" d="M295.916,297.814l-62.573-15.258c-21.698,12.975-47.071,20.428-74.191,20.428
			c-79.949,0-144.762-64.812-144.762-144.763c0-79.95,64.813-144.764,144.762-144.764c79.956,0,144.767,64.813,144.767,144.764
			c0,29.228-8.666,56.429-23.559,79.187L295.916,297.814z"/>
		<g>
			<g>
				<path id="SVGID_1_" fill="#FFFFFF" d="M284.697,160.859c0,69.224-56.122,125.346-125.344,125.346
					c-69.228,0-125.347-56.122-125.347-125.346c0-69.23,56.119-125.348,125.347-125.348
					C228.575,35.511,284.697,91.628,284.697,160.859z"/>
			</g>
			<g>
				<defs>
					<path id="SVGID_2_" d="M284.697,160.859c0,69.224-56.122,125.346-125.344,125.346c-69.228,0-125.347-56.122-125.347-125.346
						c0-69.23,56.119-125.348,125.347-125.348C228.575,35.511,284.697,91.628,284.697,160.859z"/>
				</defs>
				<clipPath id="SVGID_3_">
					<use xlink:href="#SVGID_2_"  overflow="visible"/>
				</clipPath>
				<g clip-path="url(#SVGID_3_)">
					<polygon fill="#615545" points="157.758,286.998 157.758,202.605 185.891,202.605 243.881,226.843 258.598,286.998 					"/>
					<polygon fill="#433832" points="157.758,286.998 157.758,202.605 129.626,202.605 71.635,226.843 56.923,286.998 					"/>
					<polygon fill="#433832" points="243.881,226.843 225.676,286.998 258.598,286.998 					"/>
					<rect x="157.758" y="202.605" fill="#F2F1E4" width="28.133" height="84.393"/>
					<polygon fill="#615545" points="71.635,226.843 89.84,286.998 56.923,286.998 					"/>
					<rect x="129.626" y="202.605" fill="#E6DBC9" width="28.132" height="84.393"/>
					<path fill="#EFBD4F" d="M138.608,159.837l-8.982,42.771c0,15.537,12.598,28.129,28.132,28.129v-28.129v-42.771H138.608z"/>
					<path fill="#F1C967" d="M176.911,159.837h-19.153v42.771v28.129c15.536,0,28.133-12.592,28.133-28.129L176.911,159.837z"/>
					<path fill="#EFCF83" d="M100.15,126.562c0,37.573,25.792,71.949,57.607,71.949V62.459
						C125.942,62.459,100.15,88.991,100.15,126.562z"/>
					<path fill="#F3DE9D" d="M157.758,62.459v136.052c31.816,0,57.613-34.376,57.613-71.949
						C215.371,88.991,189.574,62.459,157.758,62.459z"/>
					<polygon fill="#433832" points="185.891,202.605 157.758,230.734 176.221,247.654 191.557,209.15 					"/>
					<polygon fill="#615545" points="129.626,202.605 157.758,230.734 139.296,247.654 123.96,209.15 					"/>
					<polygon fill="#FFA500" points="157.758,230.734 157.758,247.654 164.326,246.245 166.988,239.195 					"/>
					<polygon fill="#CE830B" points="171.819,286.998 164.326,246.245 157.758,247.654 157.758,286.998 					"/>
					<polygon fill="#CE830B" points="157.758,230.734 157.758,247.654 151.193,246.245 148.526,239.195 					"/>
					<polygon fill="#FFA500" points="143.697,286.998 151.193,246.245 157.758,247.654 157.758,286.998 					"/>
					<g>
						<path fill="#433832" d="M157.758,62.459c-31.816,0-57.607,26.532-57.607,64.103c0,6.254,0.732,12.42,2.068,18.353
							l3.701-29.927c0.808-6.563,6.388-11.494,12.998-11.494h38.84h38.836c6.617,0,12.192,4.931,13.002,11.494l3.702,29.927
							c1.34-5.932,2.073-12.098,2.073-18.353C215.371,88.991,189.574,62.459,157.758,62.459z"/>
					</g>
					<path fill="#615545" d="M115.732,83.125c0,0,5.829,9.874,33.044,17.331c27.213,7.455,57.763,2.452,63.587-3.782
						c0,0-7.266-6.004-20.622-5.652c0,0,12.728,1.251,22.259-6.097c0,0-10.495-7.872-23.2-8.104c0,0,7.401-0.209,14.334-4.642
						C205.134,72.179,141.826,31.697,115.732,83.125z"/>
				</g>
			</g>
		</g>
	</g>
	<g>
		<path fill="#FFA500" d="M345.22,246.896V103.138h-27.371V83.165h77.181v19.974h-27.863v143.757H345.22z"/>
		<path fill="#FFA500" d="M463.331,211.389c0,24.657-12.495,36.986-37.48,36.986c-12.494,0-21.74-2.997-27.739-9
			c-6.003-5.999-9-15.327-9-27.986v-47.345c0-12.491,2.997-21.78,9-27.864c5.999-6.08,15.325-9.124,27.986-9.124
			c24.819,0,37.233,12.329,37.233,36.987v29.343h-53.508v18.494c0,11.836,5.34,17.754,16.026,17.754
			c11.013,0,16.521-5.918,16.521-17.754v-5.918h20.959L463.331,211.389L463.331,211.389z M442.372,163.551
			c0-11.836-5.425-17.754-16.274-17.754c-10.849,0-16.273,5.918-16.273,17.754v14.055h32.549L442.372,163.551L442.372,163.551z"/>
		<path fill="#FFFFFF" d="M477.139,246.896V83.165h59.181v19.974h-37.48v47.837h34.274v20.219h-34.274v55.728h39.453v19.974H477.139
			L477.139,246.896z"/>
		<path fill="#FFFFFF" d="M654.429,246.896v-84.332c0-11.176-4.851-16.768-14.548-16.768c-4.771,0-8.346,1.317-10.727,3.945
			c-2.385,2.631-4.481,7.07-6.288,13.314v83.838H602.4v-84.33c0-11.177-4.853-16.769-14.55-16.769c-4.77,0-8.345,1.317-10.727,3.945
			c-2.385,2.631-4.479,7.07-6.287,13.315v83.838h-21.206V128.536h19.728l0.738,17.014h0.986c2.466-6.411,5.71-11.096,9.74-14.055
			c4.025-2.959,9-4.438,14.918-4.438c6.245,0,11.628,1.688,16.151,5.055c4.52,3.371,7.602,8.345,9.246,14.918
			c3.286-7.725,7.231-12.984,11.836-15.781c4.601-2.793,9.697-4.192,15.288-4.192c8.219,0,14.876,2.674,19.974,8.014
			c5.094,5.344,7.645,13.192,7.645,23.549v88.276H654.429z"/>
		<path fill="#FFFFFF" d="M690.182,304.35V128.536h18.986l0.74,17.014h0.986c2.627-6.411,5.997-11.096,10.108-14.055
			c4.107-2.959,9.37-4.438,15.781-4.438c8.877,0,15.82,2.674,20.836,8.014c5.013,5.344,7.521,13.192,7.521,23.549v58.192
			c0,10.356-2.466,18.209-7.396,23.549c-4.932,5.345-11.836,8.015-20.713,8.015c-5.918,0-10.975-1.274-15.165-3.822
			c-4.192-2.547-7.44-6.696-9.74-12.452h-0.986v72.25h-20.958V304.35z M743.689,163.551c0-6.246-1.317-10.765-3.945-13.562
			c-2.632-2.793-6.496-4.192-11.589-4.192c-4.933,0-8.631,1.317-11.098,3.945c-2.466,2.631-4.604,7.07-6.41,13.314v49.316
			c1.807,6.249,3.944,10.688,6.41,13.314c2.467,2.633,6.165,3.945,11.098,3.945c5.093,0,8.957-1.395,11.589-4.191
			c2.628-2.793,3.945-7.313,3.945-13.563V163.551z"/>
		<path fill="#FFFFFF" d="M779.444,246.896V81.192h21.206v165.705H779.444z"/>
		<path fill="#FFFFFF" d="M889.172,211.389c0,24.657-12.495,36.986-37.479,36.986c-12.495,0-21.741-2.997-27.74-9
			c-6.003-5.999-9-15.327-9-27.986v-47.345c0-12.491,2.997-21.78,9-27.864c5.999-6.08,15.326-9.124,27.987-9.124
			c24.818,0,37.232,12.329,37.232,36.987v29.343h-53.508v18.494c0,11.836,5.34,17.754,16.027,17.754
			c11.012,0,16.521-5.918,16.521-17.754v-5.918h20.959L889.172,211.389L889.172,211.389z M868.213,163.551
			c0-11.836-5.425-17.754-16.273-17.754c-10.85,0-16.274,5.918-16.274,17.754v14.055h32.549L868.213,163.551L868.213,163.551z"/>
		<path fill="#FFFFFF" d="M957.474,246.896l-0.738-15.043h-0.986c-2.632,4.604-6.042,8.508-10.233,11.713
			c-4.191,3.207-10.151,4.81-17.877,4.81c-9.37,0-16.027-2.381-19.974-7.151c-3.945-4.766-5.918-11.177-5.918-19.232v-11.836
			c0-5.094,0.574-9.493,1.727-13.191c1.147-3.699,2.959-6.82,5.425-9.369c2.467-2.548,5.709-4.768,9.739-6.658
			c4.026-1.889,8.916-3.656,14.672-5.303c2.628-0.82,5.303-1.603,8.015-2.342c2.713-0.74,5.136-1.561,7.273-2.466
			c2.135-0.901,3.86-2.011,5.18-3.329c1.313-1.314,1.973-2.959,1.973-4.932v-4.933c0-8.053-5.098-12.083-15.288-12.083
			c-11.182,0-16.768,4.438-16.768,13.315v7.644H903.72V156.4c0-9.863,3.329-17.219,9.986-22.069
			c6.658-4.847,15.985-7.274,27.987-7.274c23.506,0,35.262,9.208,35.262,27.617v92.223H957.474z M955.994,181.798
			c-2.466,1.812-4.771,3.044-6.904,3.698c-2.139,0.658-5.51,1.646-10.108,2.959c-6.904,2.139-11.344,4.523-13.315,7.15
			c-1.973,2.633-2.959,6.25-2.959,10.851v10.603c0,8.385,4.685,12.576,14.055,12.576c4.933,0,8.916-1.148,11.959-3.451
			c3.04-2.301,5.464-5.834,7.274-10.604L955.994,181.798L955.994,181.798z"/>
	</g>
</g>
</svg>
